:version 1.10
:name ASF
:units
  mass 1
  length 1
  angle deg
:documentation
  ASF file generated by Kaydara
:root
  axis xyz
  order  tx ty tz rx ry rz
  position 0 0 0
  orientation 0 0 0
:bonedata
  begin
    id 1
    name RightUpLegDummy
    direction -0.65628 -0.754516 0.00165102
    length 4.76918
    axis 0 0 0 xyz
  end
  begin
    id 2
    name RightUpLeg
    direction -0.145584 -0.923362 0.355256
    length 17.9961
    axis -24.7611 -13.1006 1.78531 xyz
    dof rx ry rz
  end
  begin
    id 3
    name RightLeg
    direction 0.263379 0.172355 -0.949171
    length 13.3386
    axis 89.6202 -21.1929 12.3855 xyz
    dof rx ry rz
  end
  begin
    id 4
    name RightFoot
    direction 0.224283 -0.968777 -0.105675
    length 5.86697
    axis 56.995 -39.6905 17.3365 xyz
    dof rx ry rz
  end
  begin
    id 5
    name RightToes
    direction -0.0806345 -0.9037 0.420506
    length 4.75197
    axis 146.825 -39.7828 17.6019 xyz
    dof rx ry rz
  end
  begin
    id 6
    name SpineDummy
    direction -3.39852e-014 1 9.33296e-014
    length 8.13779
    axis 0 0 0 xyz
  end
  begin
    id 7
    name Spine
    direction -0.156609 0.733703 0.661176
    length 7.14978
    axis 41.2365 5.68757 17.0844 xyz
    dof rx ry rz
  end
  begin
    id 8
    name Spine1
    direction 0 0 0
    length 0
    axis 42.8809 47.8308 -3.36039 xyz
    dof rx ry rz
  end
  begin
    id 9
    name HEadDummy
    direction 0.546431 0.701947 0.456819
    length 3.55512
    axis 42.8809 47.8308 -3.36039 xyz
  end
  begin
    id 10
    name HEad
    direction 0.23444 0.828559 0.508457
    length 7.35827
    axis 51.1864 49.2662 27.4903 xyz
    dof rx ry rz
  end
  begin
    id 11
    name LeftShoulder1Dummy
    direction 0.431183 0.475873 -0.766568
    length 2.49352
    axis 42.8809 47.8308 -3.36039 xyz
  end
  begin
    id 12
    name LeftShoulder1
    direction 0.268187 -0.383402 -0.883786
    length 4.48604
    axis -119.517 0.106469 35.1736 xyz
    dof rx ry rz
  end
  begin
    id 13
    name LeftArm
    direction 0.380567 -0.703221 -0.600541
    length 10.1142
    axis -5.41825 36.2925 7.8293 xyz
    dof rx ry rz
  end
  begin
    id 14
    name LeftForeArm
    direction 0.541071 -0.732356 -0.413396
    length 9.39839
    axis 4.65387 33.7604 7.81644 xyz
    dof rx ry rz
  end
  begin
    id 15
    name LeftHand
    direction 0.847511 -0.389379 -0.360707
    length 3.66142
    axis 7.65593 21.1436 -24.6758 xyz
    dof rx ry rz
  end
  begin
    id 16
    name RightShoulderDummy
    direction -0.692546 0.541855 0.476208
    length 2.49352
    axis 42.8809 47.8308 -3.36039 xyz
  end
  begin
    id 17
    name RightShoulder
    direction -0.870808 -0.316653 0.376065
    length 4.48602
    axis 141.571 51.133 -100.254 xyz
    dof rx ry rz
  end
  begin
    id 18
    name RightArm
    direction 0.366897 -0.87275 0.322015
    length 10.1142
    axis 92.3258 71.2036 138.917 xyz
    dof rx ry rz
  end
  begin
    id 19
    name RightForeArm
    direction 0.702487 -0.694568 0.155197
    length 9.39835
    axis 153.863 41.5092 -176.604 xyz
    dof rx ry rz
  end
  begin
    id 20
    name RightHand
    direction 0.79502 -0.601276 0.0800636
    length 3.66142
    axis 154.247 4.59222 142.9 xyz
    dof rx ry rz
  end
  begin
    id 21
    name LeftUpLegDummy
    direction 0.65628 -0.754516 0.00165102
    length 4.76919
    axis 0 0 0 xyz
  end
  begin
    id 22
    name LeftUpLeg
    direction -0.1277 -0.689368 0.713067
    length 17.9961
    axis -48.3385 -17.8675 0.791927 xyz
    dof rx ry rz
  end
  begin
    id 23
    name LeftLeg
    direction 0.109849 -0.991246 -0.0732378
    length 13.3386
    axis -2.05791 -7.30784 1.72042 xyz
    dof rx ry rz
  end
  begin
    id 24
    name LeftFoot
    direction 0.0448355 -0.272614 0.961078
    length 5.86697
    axis -18.7733 -7.89606 10.2113 xyz
    dof rx ry rz
  end
  begin
    id 25
    name LeftToes
    direction -0.18506 0.293668 0.937823
    length 4.75197
    axis 71.2267 -7.89606 10.2113 xyz
    dof rx ry rz
  end
:hierarchy
  begin
    root RightUpLegDummy SpineDummy LeftUpLegDummy
    RightUpLegDummy RightUpLeg
    RightUpLeg RightLeg
    RightLeg RightFoot
    RightFoot RightToes
    SpineDummy Spine
    Spine Spine1
    Spine1 HEadDummy LeftShoulder1Dummy RightShoulderDummy
    HEadDummy HEad
    LeftShoulder1Dummy LeftShoulder1
    LeftShoulder1 LeftArm
    LeftArm LeftForeArm
    LeftForeArm LeftHand
    RightShoulderDummy RightShoulder
    RightShoulder RightArm
    RightArm RightForeArm
    RightForeArm RightHand
    LeftUpLegDummy LeftUpLeg
    LeftUpLeg LeftLeg
    LeftLeg LeftFoot
    LeftFoot LeftToes
  end

:SAMPLES-PER-SECOND 30
:FULLY-SPECIFIED
:DEGREES
767
root  -19.3459 39.0131 45.2427 -179.744 -20.5373 173.624
RightUpLeg  -5.06639 12.1085 -2.2195
RightLeg  -107.638 -7.6905 8.90399
RightFoot  34.2259 8.6895 -22.4896
RightToes  -1.27222e-014 -6.36111e-015 6.36111e-015
Spine  -37.6665 -22.7902 -16.1909
Spine1  -1.34568 -14.5684 50.7117
HEad  -3.17948 -30.9012 -13.1772
LeftShoulder1  6.36111e-015 -1.33558e-015 6.49777e-015
LeftArm  31.3969 -26.0479 -50.8763
LeftForeArm  -9.70051 -20.1329 -0.33657
LeftHand  -2.1455 -4.09105 -12.8815
RightShoulder  -4.77083e-015 -6.36111e-015 -3.18055e-015
RightArm  69.6411 -44.7377 -40.451
RightForeArm  -6.7897 -8.95779 -1.01315
RightHand  0.620496 -0.0267679 -4.68809
LeftUpLeg  58.6018 20.0595 23.7536
LeftLeg  -24.5934 -10.8646 -1.46574
LeftFoot  -1.75668 4.36489 -15.4903
LeftToes  1.27222e-014 -5.20697e-012 1.80337e-011
768
root  -19.3385 38.7999 44.2175 178.836 -20.3578 174.31
RightUpLeg  -4.57638 14.0833 0.0818696
RightLeg  -101.602 -10.7624 5.33531
RightFoot  38.1732 9.186 -23.1923
RightToes  -1.27222e-014 -6.36111e-015 6.36111e-015
Spine  -36.6147 -21.5061 -14.1397
Spine1  -1.87628 -14.8906 50.5424
HEad  -4.15627 -29.811 -14.0173
LeftShoulder1  6.36111e-015 -1.33558e-015 6.49777e-015
LeftArm  29.4451 -27.1034 -52.5639
LeftForeArm  -10.6294 -23.2533 0.465185
LeftHand  -1.90737 -3.39694 -11.786
RightShoulder  -4.77083e-015 -6.36111e-015 -3.18055e-015
RightArm  71.2419 -43.7895 -43.8783
RightForeArm  -4.30033 -6.97871 1.65622
RightHand  0.526354 -0.165196 -3.75084
LeftUpLeg  60.2572 18.9872 26.1696
LeftLeg  -21.0732 -12.1889 -0.0973957
LeftFoot  -2.30887 4.89479 -17.6744
LeftToes  1.27222e-014 -5.20697e-012 1.80337e-011
769
root  -19.2805 38.6558 43.1012 177.529 -19.8262 175.255
RightUpLeg  -3.65752 17.4331 2.49903
RightLeg  -96.2261 -11.7457 5.37502
RightFoot  38.2708 8.11217 -21.9843
RightToes  -1.27222e-014 -6.36111e-015 6.36111e-015
Spine  -36.0084 -20.2566 -11.8317
Spine1  -2.21694 -15.277 50.6479
HEad  -4.0802 -28.0247 -15.2239
LeftShoulder1  6.36111e-015 -1.33558e-015 6.49777e-015
LeftArm  27.5729 -26.2926 -54.0716
LeftForeArm  -11.9738 -27.0698 1.7132
LeftHand  -1.67075 -2.68409 -11.0816
RightShoulder  -4.77083e-015 -6.36111e-015 -3.18055e-015
RightArm  72.3641 -43.5347 -44.249
RightForeArm  -2.68968 -5.32916 2.9036
RightHand  0.261603 -0.25652 -1.60729
LeftUpLeg  60.0444 16.5129 26.3693
LeftLeg  -15.496 -11.7893 -0.480794
LeftFoot  -1.41218 6.23986 -21.8139
LeftToes  1.27222e-014 -5.20697e-012 1.80337e-011
770
root  -19.1823 38.5688 41.9676 176.827 -19.7427 175.656
RightUpLeg  -2.87726 17.7136 3.90841
RightLeg  -91.9858 -12.7606 6.51627
RightFoot  35.3518 6.8166 -20.3154
RightToes  -1.27222e-014 -6.36111e-015 6.36111e-015
Spine  -35.7873 -19.7827 -9.84707
Spine1  -2.43087 -15.9314 51.439
HEad  -3.42521 -25.6052 -16.3324
LeftShoulder1  6.36111e-015 -1.33558e-015 6.49777e-015
LeftArm  26.7748 -24.8143 -55.638
LeftForeArm  -14.1573 -31.1486 3.53364
LeftHand  -1.65401 -2.69651 -10.7075
RightShoulder  -4.77083e-015 -6.36111e-015 -3.18055e-015
RightArm  73.1118 -44.1918 -41.8883
RightForeArm  -2.68887 -4.78166 2.4169
RightHand  -0.101957 0.0828955 0.7291
LeftUpLeg  57.1824 14.3942 25.2581
LeftLeg  -6.95422 -9.64101 -1.09309
LeftFoot  3.96196 7.92064 -23.4711
LeftToes  1.27222e-014 -5.20697e-012 1.80337e-011
771
root  -19.0799 38.4462 40.907 176.25 -20.4449 175.872
RightUpLeg  -2.12059 16.7471 4.72335
RightLeg  -88.164 -13.8467 7.62644
RightFoot  31.8002 6.67223 -19.8555
RightToes  -1.27222e-014 -6.36111e-015 6.36111e-015
Spine  -35.3741 -19.7155 -7.95049
Spine1  -2.87511 -16.6796 53.1101
HEad  -2.88753 -23.2537 -16.8896
LeftShoulder1  6.36111e-015 -1.33558e-015 6.49777e-015
LeftArm  27.5674 -25.0559 -58.1467
LeftForeArm  -16.5887 -35.0005 5.75259
LeftHand  -1.81366 -3.31727 -10.3059
RightShoulder  -4.77083e-015 -6.36111e-015 -3.18055e-015
RightArm  73.5249 -45.1971 -37.6858
RightForeArm  -4.4502 -5.97963 0.607923
RightHand  -0.458725 1.05549 2.36021
LeftUpLeg  51.817 12.2826 22.6777
LeftLeg  3.71904 -5.82366 -0.854037
LeftFoot  14.4544 8.65867 -19.6785
LeftToes  1.27222e-014 -5.20697e-012 1.80337e-011
772
root  -18.9754 38.151 39.9534 175.114 -21.4086 176.529
RightUpLeg  -1.37963 16.0648 6.09246
RightLeg  -83.4974 -15.2709 8.55697
RightFoot  28.0519 7.07135 -20.0607
RightToes  -1.27222e-014 -6.36111e-015 6.36111e-015
Spine  -34.2704 -19.5865 -6.23718
Spine1  -3.36729 -17.1479 55.5348
HEad  -3.10195 -21.8074 -16.6116
LeftShoulder1  6.36111e-015 -1.33558e-015 6.49777e-015
LeftArm  29.5942 -28.4439 -61.9945
LeftForeArm  -18.2695 -38.9463 8.23984
LeftHand  -1.88086 -3.6325 -9.75683
RightShoulder  -4.77083e-015 -6.36111e-015 -3.18055e-015
RightArm  73.5985 -45.8433 -32.5138
RightForeArm  -7.57612 -8.82549 -2.0405
RightHand  -0.739209 2.34191 3.13702
LeftUpLeg  45.8793 9.78419 19.9044
LeftLeg  14.2114 -2.81564 0.430766
LeftFoot  22.6669 7.72855 -14.7451
LeftToes  1.27222e-014 -5.20697e-012 1.80337e-011
773
root  -18.8049 37.8296 38.9912 173.351 -21.9676 177.168
RightUpLeg  0.341571 15.9306 7.97833
RightLeg  -79.5068 -16.8868 9.99693
RightFoot  24.2578 7.15548 -19.8547
RightToes  -1.27222e-014 -6.36111e-015 6.36111e-015
Spine  -32.5597 -20.1726 -6.33544
Spine1  -3.55617 -17.4167 58.3546
HEad  -4.1711 -20.6381 -15.9495
LeftShoulder1  6.36111e-015 -1.33558e-015 6.49777e-015
LeftArm  32.0838 -33.9774 -66.26
LeftForeArm  -19.2929 -43.7364 11.4025
LeftHand  -1.76317 -3.28826 -9.44657
RightShoulder  -4.77083e-015 -6.36111e-015 -3.18055e-015
RightArm  73.2903 -45.5537 -28.1779
RightForeArm  -10.7085 -11.7073 -4.53839
RightHand  -0.832024 3.09564 2.95982
LeftUpLeg  40.9678 7.57927 17.6963
LeftLeg  22.392 -1.88627 1.4843
LeftFoot  22.3188 6.33655 -12.2142
LeftToes  1.27222e-014 -5.20697e-012 1.80337e-011
774
root  -18.547 37.527 38.0075 171.466 -22.2915 177.188
RightUpLeg  2.72172 15.7981 9.59374
RightLeg  -76.4794 -18.6317 11.8195
RightFoot  20.7546 7.22009 -19.6315
RightToes  -1.27222e-014 -6.36111e-015 6.36111e-015
Spine  -30.4145 -21.934 -8.67272
Spine1  -3.38685 -17.7517 61.4609
HEad  -5.76543 -20.6287 -14.8858
LeftShoulder1  6.36111e-015 -1.33558e-015 6.49777e-015
LeftArm  33.8853 -39.2503 -69.3744
LeftForeArm  -20.4807 -48.6802 15.2214
LeftHand  -1.64233 -2.87564 -9.50633
RightShoulder  -4.77083e-015 -6.36111e-015 -3.18055e-015
RightArm  72.1714 -44.0696 -26.0425
RightForeArm  -12.3254 -13.0905 -5.4349
RightHand  -0.622217 2.75725 1.42213
LeftUpLeg  36.7188 6.12227 15.8329
LeftLeg  26.9292 -2.73546 1.30507
LeftFoot  16.0146 5.52748 -12.2108
LeftToes  1.27222e-014 -5.20697e-012 1.80337e-011
775
root  -18.2611 37.162 37.0945 169.72 -22.3747 176.951
RightUpLeg  4.76083 15.3241 10.9724
RightLeg  -73.447 -20.4261 13.1954
RightFoot  17.8314 7.86698 -20.3993
RightToes  -1.27222e-014 -6.36111e-015 6.36111e-015
Spine  -28.0772 -23.7951 -11.5206
Spine1  -3.18303 -18.0599 64.4798
HEad  -7.02898 -20.3083 -14.18
LeftShoulder1  6.36111e-015 -1.33558e-015 6.49777e-015
LeftArm  34.3282 -42.8297 -70.7325
LeftForeArm  -21.7904 -51.2437 17.8001
LeftHand  -1.6219 -2.81322 -9.4742
RightShoulder  -4.77083e-015 -6.36111e-015 -3.18055e-015
RightArm  69.5784 -41.7173 -25.7683
RightForeArm  -11.592 -13.0359 -3.8143
RightHand  -0.119516 1.60025 -1.32891
LeftUpLeg  32.4323 5.44847 14.5931
LeftLeg  27.3736 -3.59549 0.748037
LeftFoot  10.5423 5.29097 -13.2856
LeftToes  1.27222e-014 -5.20697e-012 1.80337e-011
776
root  -17.9701 36.7985 36.2786 168.186 -21.4694 176.765
RightUpLeg  6.40216 14.7058 12.4916
RightLeg  -70.5736 -21.8721 13.7409
RightFoot  15.4294 8.93652 -22.0312
RightToes  -1.27222e-014 -6.36111e-015 6.36111e-015
Spine  -26.0893 -25.0506 -13.9462
Spine1  -3.01778 -18.2697 66.1647
HEad  -7.51871 -19.3468 -14.2055
LeftShoulder1  6.36111e-015 -1.33558e-015 6.49777e-015
LeftArm  33.8483 -44.9372 -70.8653
LeftForeArm  -21.8973 -49.9781 16.9121
LeftHand  -1.67939 -3.06965 -9.09296
RightShoulder  -4.77083e-015 -6.36111e-015 -3.18055e-015
RightArm  65.8336 -38.9518 -31.4356
RightForeArm  -6.58302 -8.77384 1.3032
RightHand  0.507363 0.173727 -4.1468
LeftUpLeg  28.4758 6.07046 14.6467
LeftLeg  23.7247 -3.09184 0.893419
LeftFoot  8.25177 4.95157 -13.1746
LeftToes  1.27222e-014 -5.20697e-012 1.80337e-011
777
root  -17.6835 36.5004 35.5713 167.1 -19.2672 176.443
RightUpLeg  7.72934 14.281 13.9403
RightLeg  -68.1701 -22.7186 13.547
RightFoot  13.2034 9.81891 -23.503
RightToes  -1.27222e-014 -6.36111e-015 6.36111e-015
Spine  -24.9641 -25.8047 -15.9139
Spine1  -2.30529 -18.5154 65.8483
HEad  -7.80218 -17.9824 -14.6348
LeftShoulder1  6.36111e-015 -1.33558e-015 6.49777e-015
LeftArm  32.9516 -46.1063 -70.129
LeftForeArm  -20.1088 -46.4175 13.4906
LeftHand  -1.80759 -3.53776 -8.79133
RightShoulder  -4.77083e-015 -6.36111e-015 -3.18055e-015
RightArm  60.9213 -37.3592 -39.1295
RightForeArm  0.425825 -3.61505 7.20924
RightHand  1.07287 -1.20649 -6.08672
LeftUpLeg  25.5754 7.976 15.9108
LeftLeg  16.1898 -2.87229 0.560023
LeftFoot  6.69173 4.75031 -13.1663
LeftToes  1.27222e-014 -5.20697e-012 1.80337e-011
778
root  -17.449 36.2992 34.9619 166.565 -16.1781 175.859
RightUpLeg  8.76258 14.0731 14.8989
RightLeg  -66.1836 -22.7958 12.5271
RightFoot  11.1969 10.4622 -24.6678
RightToes  -1.27222e-014 -6.36111e-015 6.36111e-015
Spine  -24.956 -26.2111 -17.1274
Spine1  -0.697975 -18.8285 64.159
HEad  -8.45769 -16.1906 -15.1162
LeftShoulder1  6.36111e-015 -1.33558e-015 6.49777e-015
LeftArm  31.479 -46.0187 -68.2751
LeftForeArm  -16.4042 -43.2121 9.88276
LeftHand  -1.8883 -3.75349 -9.11508
RightShoulder  -4.77083e-015 -6.36111e-015 -3.18055e-015
RightArm  55.6815 -36.9385 -40.5492
RightForeArm  2.99411 -2.60329 9.34439
RightHand  1.49241 -2.22216 -7.3298
LeftUpLeg  23.9504 10.3184 17.3798
LeftLeg  5.5169 -5.07692 -0.636057
LeftFoot  6.94989 5.42573 -14.9175
LeftToes  1.27222e-014 -5.20697e-012 1.80337e-011
